<svg xmlns="http://www.w3.org/2000/svg" xmlns:xlink="http://www.w3.org/1999/xlink" viewBox="0 0 602.92 553.12"><defs><style>.c-1{fill:none;}.c-2{isolation:isolate;}.c-3{clip-path:url(#clip-path);}.c-4{fill:#a05249;}.c-5{fill:#a3534a;}.c-6{clip-path:url(#clip-path-2);}.c-7{fill:#a2534a;}.c-8{clip-path:url(#clip-path-3);}.c-9{clip-path:url(#clip-path-4);}.c-10{fill:#964d44;}.c-11{fill:#9b4f47;}.c-12{fill:#994e46;}.c-13{fill:#7d4039;}.c-14{clip-path:url(#clip-path-5);}.c-15{fill:#82433b;}.c-16{clip-path:url(#clip-path-6);}.c-17{clip-path:url(#clip-path-7);}.c-18{clip-path:url(#clip-path-8);}.c-19{clip-path:url(#clip-path-9);}.c-20{clip-path:url(#clip-path-10);}.c-21{clip-path:url(#clip-path-11);}.c-22{fill:#914a42;}.c-23{fill:#8c4840;}.c-24{fill:#87453e;}.c-25{fill:#944c44;}.c-26{clip-path:url(#clip-path-12);}.c-27{clip-path:url(#clip-path-13);}.c-28{clip-path:url(#clip-path-14);}.c-29{fill:#855085;}.c-30{clip-path:url(#clip-path-15);}.c-31{clip-path:url(#clip-path-16);}.c-32{clip-path:url(#clip-path-17);}.c-33{clip-path:url(#clip-path-18);}.c-34{clip-path:url(#clip-path-19);}.c-35{clip-path:url(#clip-path-20);}.c-36{clip-path:url(#clip-path-21);}.c-37{fill:#d96f63;}.c-38{clip-path:url(#clip-path-22);}.c-39{clip-path:url(#clip-path-23);}.c-40{fill:#de85de;}.c-41{clip-path:url(#clip-path-24);}.c-42{fill:#a362a3;}</style><clipPath id="clip-path"><path class="c-1" d="M579.79,390.52l13.09,11.13c-5.63-4.79-14.07-9.07-24.89-12.5L554.91,378C565.72,381.45,574.16,385.74,579.79,390.52Z"/></clipPath><clipPath id="clip-path-2"><path class="c-1" d="M579.35,330.78l13.09,11.13c-9.45-8-26.67-14.54-49-18L530.4,312.79C552.68,316.24,569.9,322.76,579.35,330.78Z"/></clipPath><clipPath id="clip-path-3"><path class="c-1" d="M562.16,262.83,575.25,274c-9.07-7.71-25.3-14.07-46.21-17.61L516,245.23C536.86,248.77,553.09,255.12,562.16,262.83Z"/></clipPath><clipPath id="clip-path-4"><path class="c-1" d="M530.38,184.63l13.08,11.13c-5.56-4.73-18-11.12-35.77-16.69A254.11,254.11,0,0,0,425,168a296.4,296.4,0,0,0-50.64,6l-13.09-11.13a297.42,297.42,0,0,1,50.64-5.95A253.68,253.68,0,0,1,494.61,168C512.34,173.51,524.82,179.91,530.38,184.63Z"/></clipPath><clipPath id="clip-path-5"><path class="c-1" d="M234.55,178.28a69.91,69.91,0,0,1,1.72-8.44L249.36,181c-.18.64-.34,1.28-.5,1.94l-1.53-1.29-1.61-1.38L244,178.8l-1.71-1.45-1.71-1.45-1.68-1.43-1.62-1.38-1.53-1.29,13.07,11.1c-.47,2-.87,4.12-1.22,6.51Z"/></clipPath><clipPath id="clip-path-6"><path class="c-1" d="M236.27,169.84c3.39-12.32,9.52-18.22,16-24.46l13.09,11.12c-6.5,6.24-12.63,12.15-16,24.46l-1.53-1.3-1.62-1.37-1.69-1.43-1.71-1.46-1.71-1.46-1.68-1.43-1.62-1.37Z"/></clipPath><clipPath id="clip-path-7"><path class="c-1" d="M252.29,145.38c6.49-6.25,13.86-13.33,19-27.52L284.35,129c-5.11,14.19-12.48,21.26-19,27.51l-1.53-1.3-1.62-1.37-1.68-1.43-1.71-1.46-1.72-1.46-1.68-1.43-1.62-1.37Z"/></clipPath><clipPath id="clip-path-8"><path class="c-1" d="M275.91,86.26h0L289,97.39h0l-1.52-1.29-1.61-1.37-1.67-1.42-1.71-1.45-1.7-1.45L279.12,89l-1.61-1.37L276,86.33l0,0h0Z"/></clipPath><clipPath id="clip-path-9"><path class="c-1" d="M275.76,86.28l.15,0,7.4,6.29.85.73L285,94l.84.71,2.39,2c.23.19.55.43.76.64l-.15,0Z"/></clipPath><clipPath id="clip-path-10"><path class="c-1" d="M271.26,117.86a79.65,79.65,0,0,0,4.5-31.58l13.09,11.13a79.86,79.86,0,0,1-4.5,31.58l-1.53-1.3-1.62-1.38-1.68-1.43-1.72-1.46L276.09,122l-1.68-1.43-1.62-1.38Z"/></clipPath><clipPath id="clip-path-11"><path class="c-1" d="M275.91,86.26c5.88-1,10.71-24.7,3.32-46.74l13.09,11.12c7.38,22,2.56,45.79-3.32,46.75Z"/></clipPath><clipPath id="clip-path-12"><path class="c-1" d="M279.23,39.52A75.24,75.24,0,0,0,270.57,22l13.09,11.13a76.6,76.6,0,0,1,6.86,12.78L277.43,34.74,284,40.3l6.54,5.57q1,2.33,1.8,4.77l-1.53-1.3L289.17,48l-1.68-1.43-1.72-1.45-1.71-1.46-.84-.72-.84-.71-1.62-1.38-.78-.66A4.55,4.55,0,0,1,279.23,39.52Z"/></clipPath><clipPath id="clip-path-13"><path class="c-1" d="M263.58,12.1l13.09,11.12a79.17,79.17,0,0,1,7,9.87L270.57,22A77.7,77.7,0,0,0,263.58,12.1Z"/></clipPath><clipPath id="clip-path-14"><path class="c-1" d="M275.81,83.88c-1.46-1.24-2.27-4.79-3.7-11.6L285.2,83.41c1.43,6.81,2.24,10.35,3.7,11.6Z"/></clipPath><clipPath id="clip-path-15"><path class="c-1" d="M310.21,18.91c2,1.46,4,3,5.92,4.64l13.09,11.13q-2.88-2.45-5.92-4.64l-1.53-1.3-1.62-1.38-1.68-1.43-1.71-1.46L315,23l-1.68-1.43-1.62-1.38Z"/></clipPath><clipPath id="clip-path-16"><path class="c-1" d="M263.58,12.1l0,0,13.09,11.13,0,0-1.35-1.14-1.42-1.21-1.48-1.26-1.51-1.28-1.51-1.28-1.48-1.26-1.42-1.21-1.35-1.15-.78-.67-.11-.08-.1-.09-.1-.09A6,6,0,0,1,263.58,12.1Z"/></clipPath><clipPath id="clip-path-17"><path class="c-1" d="M263.13,11.57l13.09,11.12.42.5-1.53-1.3-1.62-1.38-1.68-1.43-1.72-1.46-1.71-1.45-1.68-1.43-1.62-1.38-1.53-1.3Z"/></clipPath><clipPath id="clip-path-18"><path class="c-1" d="M264.7,44.22c-3.88-11.59-6.95-20-9.18-26.21l13.09,11.13c2.23,6.17,5.3,14.62,9.18,26.21L264.7,44.22l13.09,11.13a231.51,231.51,0,0,1,7.41,28.06l-1.53-1.3-1.62-1.38-1.68-1.43-1.72-1.45-1.71-1.46L275.26,75l-1.62-1.38-1.53-1.3A231.51,231.51,0,0,0,264.7,44.22Z"/></clipPath><clipPath id="clip-path-19"><path class="c-1" d="M269,2c11.67-.41,29.09,8.21,41.17,16.92L323.3,30c-12.08-8.72-29.5-17.33-41.17-16.92Z"/></clipPath><clipPath id="clip-path-20"><path class="c-1" d="M263.13,11.57C261.7,9.89,260.29,8.4,259,7.11L272,18.24a59.59,59.59,0,0,1,4.18,4.45l-1.14-1-.6-.5-1.23-1L272,19.09,270.7,18l-1.27-1.08-1.24-1.05-1.18-1-.75-.64-.19-.17-.41-.35-.43-.36-.44-.37-.21-.19-.22-.18-.43-.36-.41-.35-.2-.17Z"/></clipPath><clipPath id="clip-path-21"><path class="c-1" d="M260.52,5c2-1.89,4.86-2.92,8.52-3l13.09,11.13c-3.66.12-6.53,1.16-8.52,3.05Z"/></clipPath><clipPath id="clip-path-22"><path class="c-1" d="M259,7.11A8.09,8.09,0,0,1,260.52,5l13.09,11.13A7.71,7.71,0,0,0,272,18.24Z"/></clipPath><clipPath id="clip-path-23"><path class="c-1" d="M255.52,18c-2.14-5.91-3.79-10.46-4.17-12.47l13.09,11.13a124.56,124.56,0,0,0,4.17,12.47h0l-1.53-1.3-1.62-1.38L263.78,25l-1.71-1.46-1.72-1.45-1.68-1.43-1.62-1.38L255.52,18Z"/></clipPath><clipPath id="clip-path-24"><path class="c-1" d="M251.35,5.54A21,21,0,0,1,257,9.29l13.08,11.13a20.48,20.48,0,0,0-5.65-3.75Z"/></clipPath></defs><g id="Layer_2" data-name="Layer 2"><g id="Layer_1-2" data-name="Layer 1"><g class="c-2"><path d="M579.79,390.52l13.09,11.13c5.23,4.45,8,9.33,8.07,14.36.07,9.76-10.52,19.87-29.05,27.72C552.5,452,526.62,457,499,458a268.5,268.5,0,0,1-29.22-.55l-13.08-11.13a270.86,270.86,0,0,0,29.21.56c27.59-1,53.46-6,72.86-14.24,18.53-7.85,29.12-18,29.05-27.73C587.82,399.85,585,395,579.79,390.52Z"/><g class="c-2"><g class="c-3"><g class="c-2"><path class="c-4" d="M568,389.15,554.91,378c10.81,3.43,19.25,7.72,24.88,12.5l13.09,11.13c-5.63-4.79-14.07-9.07-24.89-12.5"/></g></g></g><path d="M581.1,389l13.09,11.13c-6-5.06-14.72-9.44-25.55-12.88l-13.09-11.13C566.38,379.57,575.14,384,581.1,389Z"/><polygon class="c-5" points="562.7 387.47 549.61 376.34 554.91 378.02 567.99 389.15 562.7 387.47"/><polygon points="562.7 387.47 549.61 376.34 554.88 374.29 567.97 385.42 562.7 387.47"/><path d="M579.35,330.78l13.09,11.13c5.19,4.41,8,9.29,8.07,14.36.07,10.45-11.79,21.07-32.54,29.15l-13.09-11.13c20.75-8.07,32.62-18.7,32.54-29.15C587.38,340.07,584.54,335.2,579.35,330.78Z"/><g class="c-2"><g class="c-6"><g class="c-2"><path class="c-4" d="M543.49,323.92,530.4,312.79c22.28,3.45,39.5,10,49,18l13.09,11.13c-9.45-8-26.67-14.54-49-18"/></g></g></g><path d="M580.66,329.28l13.09,11.13c-10-8.45-27.73-15-49.91-18.44l-13.09-11.13C552.93,314.28,570.72,320.83,580.66,329.28Z"/><polygon class="c-7" points="535.39 322.66 522.3 311.54 530.4 312.79 543.49 323.92 535.39 322.66"/><polygon points="535.39 322.66 522.3 311.54 530.2 308.96 543.29 320.08 535.39 322.66"/><path d="M562.16,262.83,575.25,274c5.19,4.41,8,9.27,8.08,14.31.08,11.7-14.88,23.6-40,31.81L530.2,309c25.16-8.22,40.13-20.12,40-31.82C570.2,272.11,567.35,267.25,562.16,262.83Z"/><g class="c-2"><g class="c-8"><g class="c-2"><path class="c-4" d="M529,256.35,516,245.23c20.9,3.54,37.13,9.89,46.2,17.6L575.25,274c-9.07-7.71-25.3-14.07-46.21-17.61"/></g></g></g><path d="M563.49,261.27l13.09,11.13c-9.53-8.11-26.26-14.46-47.16-18l-13.09-11.13C537.23,246.82,554,253.17,563.49,261.27Z"/><polygon class="c-7" points="519.32 254.71 506.23 243.58 515.96 245.23 529.04 256.35 519.32 254.71"/><polygon points="519.32 254.71 506.23 243.58 515.95 241.35 529.03 252.47 519.32 254.71"/><path d="M530.38,184.63l13.08,11.13a11.33,11.33,0,0,1,2.93,3.35c8.07,16.59,9.93,29.54,5.55,38.52-3.5,7.17-11.2,12.16-22.91,14.84L516,241.35c11.7-2.69,19.4-7.68,22.9-14.85,4.39-9,2.53-21.93-5.54-38.51A11.65,11.65,0,0,0,530.38,184.63Z"/><polygon points="241.36 484.63 228.28 473.5 456.74 446.29 469.82 457.42 241.36 484.63"/><polygon points="239.44 485.32 226.35 474.19 228.28 473.5 241.36 484.63 239.44 485.32"/><polygon points="58.45 550.57 45.36 539.44 226.35 474.19 239.44 485.32 58.45 550.57"/><g class="c-2"><g class="c-9"><g class="c-2"><path class="c-10" d="M374.36,173.92l-13.09-11.13a286.58,286.58,0,0,1,37.07-5.2l13.09,11.13a284.85,284.85,0,0,0-37.07,5.2"/><path class="c-11" d="M411.43,168.72l-13.09-11.13q6.71-.51,13.57-.75a247.14,247.14,0,0,1,36.94,1.52l13.09,11.13A247.13,247.13,0,0,0,425,168q-6.87.24-13.57.76"/><path class="c-4" d="M461.94,169.49l-13.09-11.13A251.62,251.62,0,0,1,494.61,168c17.73,5.56,30.21,12,35.77,16.68l13.08,11.13c-5.56-4.73-18-11.12-35.77-16.69a252.5,252.5,0,0,0-45.75-9.58"/></g></g></g><path d="M531.68,183.15l13.09,11.13C531,182.53,481.41,164,425,166a300.87,300.87,0,0,0-51,6l-13.08-11.12a300.71,300.71,0,0,1,51-6C468.33,152.89,517.86,171.4,531.68,183.15Z"/><polygon class="c-12" points="371.72 174.47 358.63 163.35 361.27 162.79 374.36 173.92 371.72 174.47"/><polygon points="371.72 174.47 358.63 163.35 358.97 160.67 372.05 171.79 371.72 174.47"/><polygon class="c-13" points="197.08 341.2 183.99 330.07 234.55 178.28 247.64 189.41 197.08 341.2"/><polygon points="196.46 339.34 183.38 328.21 232.68 177.71 245.77 188.84 196.46 339.34"/><g class="c-2"><g class="c-14"><g class="c-2"><path class="c-15" d="M247.64,189.41l-13.09-11.13a69.91,69.91,0,0,1,1.72-8.44c3.39-12.32,9.52-18.22,16-24.46s13.86-13.33,19-27.52a79.65,79.65,0,0,0,4.5-31.58l13.09,11.13a79.86,79.86,0,0,1-4.5,31.58c-5.11,14.19-12.48,21.26-19,27.51s-12.63,12.15-16,24.46a70.1,70.1,0,0,0-1.72,8.45"/></g></g></g><g class="c-2"><g class="c-16"><g class="c-2"><path class="c-15" d="M247.64,189.41l-13.09-11.13a69.91,69.91,0,0,1,1.72-8.44c3.39-12.32,9.52-18.22,16-24.46s13.86-13.33,19-27.52a79.65,79.65,0,0,0,4.5-31.58l13.09,11.13a79.86,79.86,0,0,1-4.5,31.58c-5.11,14.19-12.48,21.26-19,27.51s-12.63,12.15-16,24.46a70.1,70.1,0,0,0-1.72,8.45"/></g></g></g><g class="c-2"><g class="c-17"><g class="c-2"><path class="c-15" d="M247.64,189.41l-13.09-11.13a69.91,69.91,0,0,1,1.72-8.44c3.39-12.32,9.52-18.22,16-24.46s13.86-13.33,19-27.52a79.65,79.65,0,0,0,4.5-31.58l13.09,11.13a79.86,79.86,0,0,1-4.5,31.58c-5.11,14.19-12.48,21.26-19,27.51s-12.63,12.15-16,24.46a70.1,70.1,0,0,0-1.72,8.45"/></g></g></g><g class="c-2"><g class="c-18"><g class="c-2"><path class="c-10" d="M288.85,97.41,275.76,86.28a1.65,1.65,0,0,0,.32-.06l13.09,11.13a1.8,1.8,0,0,1-.32.06"/></g></g></g><g class="c-2"><g class="c-19"><g class="c-2"><path class="c-10" d="M288.85,97.41,275.76,86.28a1.65,1.65,0,0,0,.32-.06l13.09,11.13a1.8,1.8,0,0,1-.32.06"/></g></g></g><g class="c-2"><g class="c-20"><g class="c-2"><path class="c-15" d="M247.64,189.41l-13.09-11.13a69.91,69.91,0,0,1,1.72-8.44c3.39-12.32,9.52-18.22,16-24.46s13.86-13.33,19-27.52a79.65,79.65,0,0,0,4.5-31.58l13.09,11.13a79.86,79.86,0,0,1-4.5,31.58c-5.11,14.19-12.48,21.26-19,27.51s-12.63,12.15-16,24.46a70.1,70.1,0,0,0-1.72,8.45"/></g></g></g><g class="c-2"><g class="c-21"><g class="c-2"><path class="c-10" d="M288.85,97.41,275.76,86.28a1.65,1.65,0,0,0,.32-.06l13.09,11.13a1.8,1.8,0,0,1-.32.06"/><path class="c-22" d="M289.17,97.35,276.08,86.22a1.58,1.58,0,0,0,.37-.11l13.09,11.12a2.29,2.29,0,0,1-.37.12"/><path class="c-23" d="M289.54,97.23,276.45,86.11a3.19,3.19,0,0,0,.45-.23L290,97a3.19,3.19,0,0,1-.45.23"/><path class="c-24" d="M290,97,276.9,85.88a4,4,0,0,0,.55-.4l13.08,11.13A3.36,3.36,0,0,1,290,97"/><path class="c-15" d="M290.53,96.61,277.45,85.48c5.1-4.39,8.51-25.88,1.78-46A75.24,75.24,0,0,0,270.57,22l13.09,11.13a75.16,75.16,0,0,1,8.66,17.55c6.73,20.09,3.32,41.58-1.79,46"/></g></g></g><path d="M290.08,95.52,277,84.4a2.76,2.76,0,0,1,.53.11L290.6,95.64A3.33,3.33,0,0,0,290.08,95.52Z"/><path d="M275.91,86.2a5,5,0,0,1,.75.64L289,97.32a3.57,3.57,0,0,1-1.38-.75L274.53,85.44A3.81,3.81,0,0,0,275.91,86.2Z"/><path d="M288.9,95,275.81,83.88a2.14,2.14,0,0,0,1.18.52l13.09,11.12A2.13,2.13,0,0,1,288.9,95Z"/><path d="M269.41,117.24a79,79,0,0,0,4.26-32.77q5.77,4.92,11.56,9.83l1.52,1.3a78.91,78.91,0,0,1-4.25,32.77c-10,27.71-28,26.62-35,52.12a64.15,64.15,0,0,0-1.69,8.34l-13.09-11.12a64.32,64.32,0,0,1,1.7-8.35C241.38,143.86,259.41,145,269.41,117.24Z"/><polygon class="c-13" points="58.45 550.57 45.36 539.44 2.43 395.52 15.52 406.65 58.45 550.57"/><polygon class="c-25" points="15.52 406.65 2.43 395.52 183.99 330.07 197.08 341.2 15.52 406.65"/><path d="M316.13,23.55l13.09,11.13a106.79,106.79,0,0,1,24,29.78,154.52,154.52,0,0,1,14.88,39.65A202.51,202.51,0,0,1,373.45,155c-.21,5.42-.69,11.08-1.4,16.82L359,160.67c.71-5.75,1.18-11.4,1.4-16.83A203.59,203.59,0,0,0,355,93a154.82,154.82,0,0,0-14.89-39.64A106.7,106.7,0,0,0,316.13,23.55Z"/><polygon points="57.14 553.12 44.05 541.99 0 394.31 13.09 405.44 57.14 553.12"/><polygon points="13.09 405.44 0 394.31 183.38 328.21 196.46 339.34 13.09 405.44"/><g class="c-2"><g class="c-26"><g class="c-2"><path class="c-15" d="M290.53,96.61,277.45,85.48c5.1-4.39,8.51-25.88,1.78-46A75.24,75.24,0,0,0,270.57,22l13.09,11.13a75.16,75.16,0,0,1,8.66,17.55c6.73,20.09,3.32,41.58-1.79,46"/></g></g></g><g class="c-2"><g class="c-27"><g class="c-2"><path class="c-15" d="M283.66,33.09,270.57,22A72.38,72.38,0,0,0,259,7.11L272,18.24a72.38,72.38,0,0,1,11.62,14.85"/></g></g></g><path d="M270.57,22A70.6,70.6,0,0,0,258.31,7.77l11.56,9.83,1.52,1.3a69.75,69.75,0,0,1,12.27,14.19C279.73,29.75,274,25.82,270.57,22Z"/><path d="M290.6,95.64,277.52,84.51c2.47-3.41,6.72-23.77-.15-44.32C272.71,26.27,263.8,15.1,257,9.29l13.08,11.13c6.8,5.81,15.71,17,20.36,30.9C297.33,71.87,293.08,92.22,290.6,95.64Z"/><g class="c-2"><g class="c-28"><g class="c-2"><path class="c-29" d="M288.9,95,275.81,83.88c-1.46-1.24-2.27-4.79-3.7-11.6a231.51,231.51,0,0,0-7.41-28.06c-3.88-11.59-6.95-20-9.18-26.21-2.14-5.91-3.79-10.46-4.17-12.47l13.09,11.13a124.56,124.56,0,0,0,4.17,12.47c2.23,6.17,5.3,14.62,9.18,26.21a231.51,231.51,0,0,1,7.41,28.06c1.43,6.81,2.24,10.35,3.7,11.6"/></g></g></g><g class="c-2"><g class="c-30"><g class="c-2"><path class="c-4" d="M286.24,13.3,273.15,2.18c11.39,1.33,26.33,9,37.06,16.73,2,1.46,4,3,5.92,4.64l13.09,11.13q-2.88-2.45-5.92-4.64c-10.73-7.74-25.67-15.4-37.06-16.74"/></g></g></g><g class="c-2"><g class="c-31"><g class="c-2"><path class="c-15" d="M283.66,33.09,270.57,22A72.38,72.38,0,0,0,259,7.11L272,18.24a72.38,72.38,0,0,1,11.62,14.85"/></g></g></g><g class="c-2"><g class="c-32"><g class="c-2"><path class="c-15" d="M283.66,33.09,270.57,22A72.38,72.38,0,0,0,259,7.11L272,18.24a72.38,72.38,0,0,1,11.62,14.85"/></g></g></g><g class="c-2"><g class="c-33"><g class="c-2"><path class="c-29" d="M288.9,95,275.81,83.88c-1.46-1.24-2.27-4.79-3.7-11.6a231.51,231.51,0,0,0-7.41-28.06c-3.88-11.59-6.95-20-9.18-26.21-2.14-5.91-3.79-10.46-4.17-12.47l13.09,11.13a124.56,124.56,0,0,0,4.17,12.47c2.23,6.17,5.3,14.62,9.18,26.21a231.51,231.51,0,0,1,7.41,28.06c1.43,6.81,2.24,10.35,3.7,11.6"/></g></g></g><g class="c-2"><g class="c-34"><g class="c-2"><path class="c-11" d="M282.13,13.12,269,2a26.42,26.42,0,0,1,4.11.19L286.24,13.3a27.66,27.66,0,0,0-4.11-.18"/><path class="c-4" d="M286.24,13.3,273.15,2.18c11.39,1.33,26.33,9,37.06,16.73,2,1.46,4,3,5.92,4.64l13.09,11.13q-2.88-2.45-5.92-4.64c-10.73-7.74-25.67-15.4-37.06-16.74"/></g></g></g><path d="M317.46,22.05l13.09,11.13q-2.91-2.47-6.07-4.76c-11.05-8-29.52-17.73-42.37-17.28L269,0c12.86-.44,31.32,9.32,42.37,17.28C313.5,18.82,315.52,20.4,317.46,22.05Z"/><g class="c-2"><g class="c-35"><g class="c-2"><path class="c-15" d="M283.66,33.09,270.57,22A72.38,72.38,0,0,0,259,7.11L272,18.24a72.38,72.38,0,0,1,11.62,14.85"/></g></g></g><g class="c-2"><g class="c-36"><g class="c-2"><path class="c-15" d="M272,18.24,259,7.11A8.09,8.09,0,0,1,260.52,5l.38-.34L274,15.83c-.13.11-.26.22-.38.34A7.71,7.71,0,0,0,272,18.24"/><path class="c-24" d="M274,15.83,260.9,4.7a10,10,0,0,1,1.4-1l13.08,11.12a9.2,9.2,0,0,0-1.39,1"/><path class="c-23" d="M275.38,14.84,262.3,3.72A9.21,9.21,0,0,1,263.78,3l13.09,11.12a11.41,11.41,0,0,0-1.49.72"/><path class="c-22" d="M276.87,14.12,263.78,3a12.48,12.48,0,0,1,1.82-.57l13.09,11.12a13.83,13.83,0,0,0-1.82.57"/><path class="c-10" d="M278.69,13.55,265.6,2.43A17,17,0,0,1,268.19,2l13.09,11.12a17,17,0,0,0-2.59.39"/><path class="c-11" d="M281.28,13.16,268.19,2c.28,0,.56,0,.85-.05l13.09,11.13-.85,0"/></g></g></g><path class="c-37" d="M282.13,13.12c11.67-.41,29.09,8.2,41.17,16.92s22,20.21,29.93,34.42a154.52,154.52,0,0,1,14.88,39.65A202.51,202.51,0,0,1,373.45,155c-.21,5.42-.69,11.08-1.4,16.82l-.33,2.68,2.64-.55A296.4,296.4,0,0,1,425,168a254.11,254.11,0,0,1,82.69,11.11c22.44,7,36.45,15.41,38.7,20,8.07,16.59,9.93,29.54,5.55,38.52-3.5,7.17-11.2,12.16-22.91,14.84l-9.71,2.24,9.72,1.64c32.88,5.57,54.19,18.1,54.29,31.92.08,11.7-14.88,23.6-40,31.81l-7.9,2.58,8.1,1.26c34.53,5.35,56.91,18.05,57,32.35.07,10.45-11.79,21.07-32.54,29.15l-5.27,2.05,5.29,1.68c20.87,6.62,32.88,16.41,33,26.86.07,9.76-10.52,19.87-29.05,27.72C552.5,452,526.62,457,499,458a256.87,256.87,0,0,1-28.82-.56L241.65,485.59l-2.21-.27-181,65.24L15.52,406.65,197.08,341.2l50.56-151.79a70.1,70.1,0,0,1,1.72-8.45c3.39-12.31,9.52-18.22,16-24.46s13.86-13.32,19-27.51a79.86,79.86,0,0,0,4.5-31.58c5.95-.58,10.92-24.53,3.47-46.77a75.16,75.16,0,0,0-8.66-17.55A72.38,72.38,0,0,0,272,18.24a7.71,7.71,0,0,1,1.57-2.07C275.6,14.28,278.47,13.24,282.13,13.12Z"/><g class="c-2"><g class="c-38"><g class="c-2"><path class="c-15" d="M272,18.24,259,7.11A8.09,8.09,0,0,1,260.52,5l.38-.34L274,15.83c-.13.11-.26.22-.38.34A7.71,7.71,0,0,0,272,18.24"/></g></g></g><path d="M282.11,11.14c12.85-.45,31.32,9.31,42.37,17.28,53.28,38.42,51.2,119.89,50.94,126.58-.22,5.54-.7,11.23-1.42,17a300.87,300.87,0,0,1,51-6c63.28-2.21,117.89,21.34,123.18,32.22,12.83,26.38,12.91,48.93-18.75,56.2,33.13,5.6,55.77,18.28,55.88,33.79.1,13.22-16.19,25.51-41.46,33.77,34.61,5.36,58.52,18.3,58.63,34.23.09,11.84-13,22.94-33.83,31.06,21,6.66,34.19,16.84,34.28,28.68.16,22.3-46.33,42-103.86,44a263.66,263.66,0,0,1-29-.57L240.23,487.75,57.14,553.12l-44-147.68,183.37-66.1,49.31-150.51a64.15,64.15,0,0,1,1.69-8.34c7-25.5,25-24.41,35-52.12a78.91,78.91,0,0,0,4.25-32.77A4.1,4.1,0,0,0,289,97.32,82.91,82.91,0,0,1,284.35,129c-5.11,14.19-12.48,21.26-19,27.51s-12.63,12.15-16,24.46a63.23,63.23,0,0,0-1.64,8.09L198.33,339.91,15.52,406.65,58.45,550.56l181-65.24,1.92-.69,228.46-27.21A268.5,268.5,0,0,0,499,458c27.58-1,53.46-6,72.86-14.24,18.53-7.85,29.12-18,29.05-27.72-.08-10.45-12.09-20.24-33-26.86l-5.29-1.68,5.27-2.05c20.75-8.08,32.61-18.7,32.54-29.15-.11-14.3-22.49-27-57-32.35l-8.1-1.26,7.9-2.58c25.16-8.21,40.12-20.11,40-31.81-.1-13.82-21.41-26.35-54.29-31.92l-9.72-1.64,9.71-2.24c11.71-2.68,19.41-7.67,22.91-14.84,4.38-9,2.52-21.93-5.55-38.52-2.25-4.63-16.26-13-38.7-20A254.11,254.11,0,0,0,425,168a296.4,296.4,0,0,0-50.64,6l-2.64.55.33-2.68c.71-5.74,1.19-11.4,1.4-16.82a202.51,202.51,0,0,0-5.34-50.86,154.52,154.52,0,0,0-14.88-39.65c-7.9-14.21-18-25.8-29.93-34.42s-29.5-17.33-41.17-16.92c-3.66.12-6.53,1.16-8.52,3.05A7.71,7.71,0,0,0,272,18.24a72.38,72.38,0,0,1,11.62,14.85A69.75,69.75,0,0,0,271.39,18.9c-.79-2.23-.06-3.25.89-4.15C274.78,12.37,278.19,11.28,282.11,11.14Z"/><path d="M271.39,18.9,258.31,7.77c-.8-2.22-.07-3.25.88-4.15C261.7,1.24,265.1.15,269,0l13.09,11.13c-3.92.14-7.33,1.23-9.83,3.61C271.33,15.65,270.6,16.67,271.39,18.9Z"/><g class="c-2"><g class="c-39"><g class="c-2"><path class="c-29" d="M288.9,95,275.81,83.88c-1.46-1.24-2.27-4.79-3.7-11.6a231.51,231.51,0,0,0-7.41-28.06c-3.88-11.59-6.95-20-9.18-26.21-2.14-5.91-3.79-10.46-4.17-12.47l13.09,11.13a124.56,124.56,0,0,0,4.17,12.47c2.23,6.17,5.3,14.62,9.18,26.21a231.51,231.51,0,0,1,7.41,28.06c1.43,6.81,2.24,10.35,3.7,11.6"/></g></g></g><path class="c-40" d="M264.44,16.67a20.48,20.48,0,0,1,5.65,3.75c6.8,5.81,15.71,17,20.36,30.9,6.88,20.55,2.63,40.9.16,44.32a3.77,3.77,0,0,0-.53-.12c-2.3-.25-3.11-3.68-4.88-12.11a231.51,231.51,0,0,0-7.41-28.06c-3.88-11.59-7-20-9.18-26.21A124.56,124.56,0,0,1,264.44,16.67Z"/><g class="c-2"><g class="c-41"><g class="c-2"><path class="c-42" d="M264.44,16.67,251.35,5.54A21,21,0,0,1,257,9.29l13.08,11.13a20.48,20.48,0,0,0-5.65-3.75"/></g></g></g><path d="M287.62,96.57,274.53,85.44a4.8,4.8,0,0,1-.86-1c-3.11-4.48-3.27-17-10.84-39.58C252.09,12.79,247.54,4.63,250,3.5a1.52,1.52,0,0,1,.6-.13c1.34,0,3.65,1.14,6.44,3.32l1.28,1,13.09,11.13q-.66-.56-1.29-1.05c-2.78-2.19-5.09-3.37-6.43-3.32a1.61,1.61,0,0,0-.61.13c-2.4,1.13,2.15,9.29,12.89,41.39,7.57,22.59,7.73,35.1,10.83,39.58A5.13,5.13,0,0,0,287.62,96.57Z"/><path d="M292.32,50.64c7.45,22.24,2.48,46.19-1.45,47.22-.41,0-.6-.32-1.06-.37a4,4,0,0,1-.81-.17,4.1,4.1,0,0,1-2.25-1.72c-3.1-4.48-3.26-17-10.83-39.58C265.18,23.92,260.63,15.76,263,14.63a1.61,1.61,0,0,1,.61-.13c1.34-.05,3.65,1.13,6.43,3.32q.65.49,1.32,1.08a69.75,69.75,0,0,1,12.27,14.19A75.16,75.16,0,0,1,292.32,50.64Zm-1.72,45c2.48-3.42,6.73-23.77-.15-44.32-4.65-13.93-13.56-25.09-20.36-30.9a20.48,20.48,0,0,0-5.65-3.75,123.79,123.79,0,0,0,4.17,12.46c2.23,6.18,5.3,14.63,9.18,26.22a231.51,231.51,0,0,1,7.41,28.06c1.77,8.43,2.58,11.86,4.88,12.11a3.33,3.33,0,0,1,.52.12"/></g></g></g></svg>