<svg id="Logo" xmlns="http://www.w3.org/2000/svg" width="63.48" height="70.01" viewBox="0 0 63.48 70.01">
  <defs>
    <style>
      .cls-1 {
        fill: #2d2b61;
      }

      .cls-2 {
        fill: #5ec097;
        stroke: #6dc497;
        stroke-miterlimit: 10;
      }

      .cls-3 {
        fill: #3d9a92;
      }

      .cls-4 {
        fill: #58c6d1;
      }
    </style>
  </defs>
  <path id="N12" class="cls-1" d="M204.11,140.31c.07,4.56-7.06,4.56-7,0S204.18,135.74,204.11,140.31Z" transform="translate(-194.52 -102.75)"/>
  <g id="N11">
    <path class="cls-1" d="M225.33,105.77c.06,4-6.21,4-6.15,0S225.39,101.75,225.33,105.77Z" transform="translate(-194.52 -102.75)"/>
  </g>
  <g id="N10">
    <path class="cls-1" d="M256.32,125.46c.06,4-6.22,4-6.16,0S256.38,121.44,256.32,125.46Z" transform="translate(-194.52 -102.75)"/>
  </g>
  <g id="N9">
    <path class="cls-1" d="M244.2,145c.06,4-6.22,4-6.16,0S244.26,141,244.2,145Z" transform="translate(-194.52 -102.75)"/>
  </g>
  <path class="cls-1" d="M219.7,106.87c-.93,1.49-16.37,13.65-9,12C211.63,117.43,227.07,105.27,219.7,106.87Z" transform="translate(-194.52 -102.75)"/>
  <path class="cls-1" d="M227.82,124.32c-.85-1.6-3.71-22.47-6-15C222.66,111,225.53,131.82,227.82,124.32Z" transform="translate(-194.52 -102.75)"/>
  <path class="cls-1" d="M237.74,109.27a81.94,81.94,0,0,1-13.4-4.15c-1.32-.53-1.89,2-.57,2.55C225.7,108.3,242.07,115.2,237.74,109.27Z" transform="translate(-194.52 -102.75)"/>
  <path class="cls-1" d="M254.71,127.43a1.16,1.16,0,0,0-1.93-.8,1.24,1.24,0,0,0-1.05-2c2.29-2.27-6.82-8.88-8.58-10.74-1-1-2.61.57-1.57,1.58,3.81,2.37,6.28,7.21,9.88,9.25-3.34,5.89-6.24,12.31-10.33,17.85-1.45-1.17-12.69-21.63-12.45-14.31,2.68,2.42,9.79,17.82,12.62,15.71a1.49,1.49,0,0,0,.3.18c1.94,3.38,7.34,3.12,10.67,4.67,1.38.42,2-1.74.59-2.16-2.64-1-7.29-1.62-9.51-3.41a113.94,113.94,0,0,0,9.18-16.12c.48,1.75-.47,25.82,3.1,19.29Q255.17,136.94,254.71,127.43Z" transform="translate(-194.52 -102.75)"/>
  <path class="cls-1" d="M238.78,113.41c-1.82-1.53-9,9.19-12,10.58-1,1,.55,2.6,1.57,1.58C230.93,122.77,239.3,117,238.78,113.41Z" transform="translate(-194.52 -102.75)"/>
  <path class="cls-1" d="M226.66,127.88c-2.5-1.32-8.62,9.8-11.1,11.8-1.86-6-3.66-12.07-5.55-18.07,1.79.14,20.27,9.34,15.69,3.5C223.32,125,208,116.5,209.28,121c-4-1,4.66,18.45,4.76,21.37a1.14,1.14,0,0,0,2.07.21C216.22,141.69,228.71,128.64,226.66,127.88Z" transform="translate(-194.52 -102.75)"/>
  <path class="cls-1" d="M252.76,151.59a43.49,43.49,0,0,1-6,12.36c-1.39-3-2.63-19-5.4-18.49-1.87-3.05-9.49,11.24-11.61,12.91L217.3,143.46c-6.91-2.14,9.74,14.3,10.51,16.07l-26.14-.33c1.6-.89,19-17.25,11.15-15-3.39,5.46-8.41,9.68-13.26,13.84-.34-1.76,3.2-21.6-1.06-15.64.52,2.33-3.54,22.07.68,18.92,9.58.26,19.19.25,28.78.41a1,1,0,0,0,1.06-1,1,1,0,0,0,1.07-.31,1.06,1.06,0,0,0,.51,1.77c4.22-.18,12.39,7.05,13.85,5.35-.37-3.82-9.78-6.46-13.25-7.51,3.22-4.22,6.35-8.52,9.54-12.76l4.3,19.2a1.1,1.1,0,0,0,1.85,1C248.57,166.34,259.22,147.49,252.76,151.59Z" transform="translate(-194.52 -102.75)"/>
  <path class="cls-1" d="M207.12,121.55c-3,1-5.78,13.45-7.92,17a1.12,1.12,0,0,0,2.15.59C201.93,135.86,209.6,122.89,207.12,121.55Z" transform="translate(-194.52 -102.75)"/>
  <path id="N8" class="cls-2" d="M243.9,112.34c.07,5.27-8.15,5.27-8.08,0S244,107.07,243.9,112.34Z" transform="translate(-194.52 -102.75)"/>
  <path id="N7" class="cls-3" d="M201.44,162.59c-.81,4.48-7.77,3.1-6.84-1.35S202.38,158.15,201.44,162.59Z" transform="translate(-194.52 -102.75)"/>
  <path id="N6" class="cls-4" d="M211.54,121.15c.06,4.73-7.32,4.73-7.25,0S211.6,116.42,211.54,121.15Z" transform="translate(-194.52 -102.75)"/>
  <path id="N5" class="cls-4" d="M258,149.9c.07,4.73-7.32,4.73-7.25,0S258.07,145.16,258,149.9Z" transform="translate(-194.52 -102.75)"/>
  <path id="N4" class="cls-4" d="M232.58,161.92c.07,4.73-7.32,4.73-7.25,0S232.65,157.19,232.58,161.92Z" transform="translate(-194.52 -102.75)"/>
  <path id="N3" class="cls-3" d="M248.58,169.12c.07,4.86-7.53,4.86-7.46,0S248.65,164.25,248.58,169.12Z" transform="translate(-194.52 -102.75)"/>
  <path class="cls-1" d="M213.4,142c-1.6-.13-15.54-5.86-11.33-1C203.67,141.16,217.61,146.89,213.4,142Z" transform="translate(-194.52 -102.75)"/>
  <path class="cls-1" d="M240.11,143.29c-2,.54-30.62-3.8-23.73.78C218.39,143.53,247,147.87,240.11,143.29Z" transform="translate(-194.52 -102.75)"/>
  <path class="cls-1" d="M252,124.06c-2,.8-29.74.26-23,3.92C231,127.18,258.72,127.71,252,124.06Z" transform="translate(-194.52 -102.75)"/>
  <path id="N2" class="cls-2" d="M218.49,143.71c.06,4.54-7,4.54-7,0S218.56,139.17,218.49,143.71Z" transform="translate(-194.52 -102.75)"/>
  <path id="N1" class="cls-3" d="M231.13,127.14c.07,4.86-7.53,4.86-7.45,0C223.61,122.27,231.2,122.27,231.13,127.14Z" transform="translate(-194.52 -102.75)"/>
</svg>
