<svg id="Logo" xmlns="http://www.w3.org/2000/svg" xmlns:xlink="http://www.w3.org/1999/xlink" width="114.16" height="120" viewBox="0 0 114.16 120">
  <defs>
    <style>
      .cls-1 {
        fill: #2d2b61;
      }

      .cls-2 {
        fill: #3d9a92;
      }

      .cls-3 {
        fill: url(#linear-gradient);
      }

      .cls-4 {
        fill: url(#linear-gradient-2);
      }

      .cls-5 {
        fill: none;
        stroke: #6dc497;
        stroke-miterlimit: 10;
      }

      .cls-6 {
        fill: url(#linear-gradient-3);
      }

      .cls-7 {
        fill: url(#linear-gradient-4);
      }

      .cls-8 {
        fill: url(#linear-gradient-5);
      }
    </style>
    <linearGradient id="linear-gradient" x1="34.85" y1="42.56" x2="42.08" y2="42.56" gradientUnits="userSpaceOnUse">
      <stop offset="0" stop-color="#2d2b61"/>
      <stop offset="0.05" stop-color="#323c6d"/>
      <stop offset="0.2" stop-color="#3d668b"/>
      <stop offset="0.36" stop-color="#4788a5"/>
      <stop offset="0.51" stop-color="#4ea3b8"/>
      <stop offset="0.67" stop-color="#54b7c6"/>
      <stop offset="0.83" stop-color="#57c2ce"/>
      <stop offset="1" stop-color="#58c6d1"/>
    </linearGradient>
    <linearGradient id="linear-gradient-2" x1="42.18" y1="65.11" x2="49" y2="65.11" gradientUnits="userSpaceOnUse">
      <stop offset="0" stop-color="#5ec097"/>
      <stop offset="1" stop-color="#58c6d1"/>
    </linearGradient>
    <linearGradient id="linear-gradient-3" x1="66.59" y1="32.92" x2="73.41" y2="32.92" xlink:href="#linear-gradient-2"/>
    <linearGradient id="linear-gradient-4" x1="78.1" y1="97.32" x2="85.34" y2="97.32" gradientTransform="translate(-50.97 144.99) rotate(-79.3)" xlink:href="#linear-gradient"/>
    <linearGradient id="linear-gradient-5" x1="82.04" y1="71.08" x2="89.28" y2="71.08" gradientTransform="translate(100.92 181.34) rotate(-137.55)" xlink:href="#linear-gradient"/>
  </defs>
  <path id="N12" class="cls-1" d="M34.69,61.7c.06,4.57-7.07,4.57-7,0S34.75,57.14,34.69,61.7Z"/>
  <g id="N11">
    <path class="cls-1" d="M55.91,27.17c.05,4-6.22,4-6.16,0S56,23.15,55.91,27.17Z"/>
  </g>
  <g id="N10">
    <path class="cls-1" d="M86.89,46.86c.06,4-6.21,4-6.15,0S87,42.84,86.89,46.86Z"/>
  </g>
  <g id="N9">
    <path class="cls-1" d="M74.77,66.37c.06,4-6.21,4-6.15,0S74.83,62.35,74.77,66.37Z"/>
  </g>
  <path class="cls-1" d="M29.17,83.32a98.71,98.71,0,0,1,3-20.22,1,1,0,0,0-1.93-.53,101,101,0,0,0-3.11,20.75c-.06,1.29,1.94,1.29,2,0Z"/>
  <path class="cls-1" d="M28.59,84.69l30.66-1.06c1.28,0,1.29-2,0-2L28.59,82.69c-1.29,0-1.29,2,0,2Z"/>
  <path class="cls-1" d="M59.18,83.37a68.47,68.47,0,0,0,16.24,8.26c1.22.43,1.74-1.51.54-1.93a66.3,66.3,0,0,1-15.77-8c-1.06-.74-2.06,1-1,1.72Z"/>
  <path class="cls-1" d="M76.24,91.33A66.61,66.61,0,0,0,86.9,71.5c.41-1.23-1.52-1.75-1.92-.54a63.94,63.94,0,0,1-10.16,19,1,1,0,0,0,0,1.41,1,1,0,0,0,1.42,0Z"/>
  <path class="cls-1" d="M87.26,70.66a69.81,69.81,0,0,0-2.72-24.43,1,1,0,0,0-1.92.54,68.15,68.15,0,0,1,2.64,23.89c-.09,1.28,1.91,1.28,2,0Z"/>
  <path class="cls-1" d="M83.75,45.67A76.67,76.67,0,0,1,71.46,32.82a1,1,0,0,0-1.37-.36,1,1,0,0,0-.36,1.37A78.71,78.71,0,0,0,82.34,47.08c1,.82,2.41-.59,1.41-1.41Z"/>
  <path class="cls-1" d="M70,32,53.47,25.83c-1.21-.45-1.73,1.48-.54,1.93L69.51,33.9c1.2.45,1.73-1.49.53-1.93Z"/>
  <path class="cls-1" d="M52.13,25.64a44.81,44.81,0,0,0-14,15.56c-.61,1.13,1.12,2.14,1.73,1A42.56,42.56,0,0,1,53.14,27.37c1.06-.73.06-2.46-1-1.73Z"/>
  <path class="cls-1" d="M38.16,41.41a72.29,72.29,0,0,1-7.45,19.08,1,1,0,0,0,1.72,1,73.65,73.65,0,0,0,7.66-19.56c.29-1.25-1.64-1.78-1.93-.53Z"/>
  <path class="cls-1" d="M69.67,32.26a68.32,68.32,0,0,0-12,15.91c-.61,1.13,1.11,2.14,1.73,1a67,67,0,0,1,11.64-15.5,1,1,0,0,0-1.42-1.41Z"/>
  <path class="cls-1" d="M52,26.8l5,22c.28,1.25,2.21.72,1.93-.54l-5-22c-.28-1.25-2.21-.72-1.92.53Z"/>
  <path class="cls-1" d="M38.46,43.2l19.26,5.86c1.23.38,1.76-1.55.53-1.93L39,41.27a1,1,0,0,0-.53,1.93Z"/>
  <path class="cls-1" d="M57.08,47.68,45,65.05c-.74,1.06,1,2.06,1.72,1L58.8,48.69c.74-1.06-1-2.06-1.72-1Z"/>
  <path class="cls-1" d="M46.19,65.67,39.77,42.22a1,1,0,0,0-1.92.53L44.26,66.2a1,1,0,0,0,1.93-.53Z"/>
  <path class="cls-1" d="M45.67,64.81a26.61,26.61,0,0,0-13.42-3.25,1,1,0,0,0,0,2,24.62,24.62,0,0,1,12.41,3c1.13.61,2.14-1.11,1-1.73Z"/>
  <path class="cls-1" d="M44.72,65.31,28.18,82.75c-.89.94.52,2.35,1.41,1.42L46.14,66.72c.88-.93-.53-2.35-1.42-1.41Z"/>
  <path class="cls-1" d="M45.25,66.82l26-.13a1,1,0,0,0,0-2l-26,.13a1,1,0,0,0,0,2Z"/>
  <path class="cls-1" d="M71.18,66.53a26.65,26.65,0,0,0,14.06,5.55,1,1,0,0,0,1-1,1,1,0,0,0-1-1,24.19,24.19,0,0,1-12.65-5,1,1,0,0,0-1.41,0,1,1,0,0,0,0,1.41Z"/>
  <path class="cls-1" d="M71,65.77l3.66,24.47a1,1,0,0,0,1.23.7,1,1,0,0,0,.7-1.23L72.88,65.23a1,1,0,0,0-1.23-.69,1,1,0,0,0-.7,1.23Z"/>
  <path class="cls-1" d="M60.39,83A53,53,0,0,0,73.56,66.73c.59-1.14-1.13-2.15-1.73-1A51.41,51.41,0,0,1,59,81.54c-1,.82.43,2.23,1.42,1.42Z"/>
  <path class="cls-1" d="M60.69,81.23l-14.56-16c-.87-1-2.28.46-1.41,1.41l14.56,16c.87,1,2.28-.46,1.41-1.41Z"/>
  <path class="cls-1" d="M72.57,66.33A65.73,65.73,0,0,0,85.09,47.47a1,1,0,0,0-.36-1.37,1,1,0,0,0-1.37.36,64,64,0,0,1-12.2,18.46c-.89.93.52,2.35,1.41,1.41Z"/>
  <path class="cls-1" d="M58.25,49.57,83.08,48c1.28-.09,1.29-2.09,0-2l-24.83,1.6c-1.28.08-1.29,2.08,0,2Z"/>
  <path class="cls-1" d="M72.27,65.27,58.59,47.82a1,1,0,0,0-1.41,0,1,1,0,0,0,0,1.41L70.85,66.69a1,1,0,0,0,1.42,0,1,1,0,0,0,0-1.42Z"/>
  <g id="N8">
    <polygon class="cls-2" points="32.04 84 31.39 85.41 30.23 86.42 28.71 86.75 27.2 86.42 25.91 85.56 25.17 84.2 25.19 82.64 25.79 81.22 26.98 80.26 28.47 79.93 30 80.2 31.27 81.09 31.98 82.45 32.04 84"/>
  </g>
  <g id="N7">
    <polygon class="cls-3" points="42.09 42.55 41.76 44.12 40.8 45.42 39.29 46.02 37.67 46.05 36.22 45.34 35.17 44.13 34.85 42.55 35.19 40.97 36.19 39.71 37.67 39.07 39.29 39.09 40.76 39.75 41.75 40.98 42.09 42.55"/>
  </g>
  <g id="N6">
    <polygon class="cls-2" points="79.17 90.52 78.83 92.15 77.74 93.37 76.24 94.01 74.58 94.12 73.03 93.47 72.07 92.12 71.67 90.52 71.99 88.87 73.02 87.54 74.59 86.95 76.26 86.91 77.77 87.62 78.79 88.9 79.17 90.52"/>
  </g>
  <g id="N5">
    <polygon class="cls-4" points="49 65.11 48.79 66.64 47.78 67.82 46.37 68.46 44.8 68.46 43.39 67.82 42.47 66.6 42.18 65.11 42.38 63.57 43.36 62.35 44.82 61.84 46.37 61.76 47.8 62.37 48.83 63.56 49 65.11"/>
    <polygon class="cls-5" points="49 65.11 48.79 66.64 47.78 67.82 46.37 68.46 44.8 68.46 43.39 67.82 42.47 66.6 42.18 65.11 42.38 63.57 43.36 62.35 44.82 61.84 46.37 61.76 47.8 62.37 48.83 63.56 49 65.11"/>
  </g>
  <g id="N4">
    <polygon class="cls-2" points="61.65 48.53 61.45 50.2 60.37 51.5 58.8 52.05 57.16 52.04 55.6 51.47 54.58 50.16 54.23 48.53 54.55 46.89 55.62 45.62 57.16 45.04 58.8 45.04 60.35 45.59 61.43 46.88 61.65 48.53"/>
  </g>
  <g id="N3">
    <polygon class="cls-6" points="73.41 32.92 73.2 34.45 72.19 35.63 70.78 36.27 69.21 36.26 67.8 35.63 66.88 34.41 66.58 32.92 66.79 31.38 67.77 30.16 69.23 29.65 70.78 29.57 72.21 30.18 73.24 31.36 73.41 32.92"/>
    <polygon class="cls-5" points="73.41 32.92 73.2 34.45 72.19 35.63 70.78 36.27 69.21 36.26 67.8 35.63 66.88 34.41 66.58 32.92 66.79 31.38 67.77 30.16 69.23 29.65 70.78 29.57 72.21 30.18 73.24 31.36 73.41 32.92"/>
  </g>
  <g id="N2">
    <polygon class="cls-7" points="60.5 79.21 61.98 79.83 63.08 81 63.39 82.6 63.11 84.2 62.15 85.5 60.77 86.3 59.15 86.32 57.67 85.69 56.62 84.48 56.26 82.9 56.58 81.31 57.5 80 58.9 79.25 60.5 79.21"/>
  </g>
  <g id="N1">
    <polygon class="cls-8" points="83.02 68.64 84.32 67.71 85.9 67.39 87.42 67.97 88.64 69.04 89.23 70.54 89.19 72.14 88.36 73.53 87.04 74.46 85.46 74.71 83.93 74.19 82.75 73.08 82.11 71.61 82.21 70.02 83.02 68.64"/>
  </g>
</svg>
